<?xml version="1.0" encoding="UTF-8" standalone="no"?>
<!DOCTYPE svg PUBLIC "-//W3C//DTD SVG 1.1//EN" "http://www.w3.org/Graphics/SVG/1.1/DTD/svg11.dtd">
<!-- Created with Vectornator (http://vectornator.io/) -->
<svg height="100%" stroke-miterlimit="10" style="fill-rule:nonzero;clip-rule:evenodd;stroke-linecap:round;stroke-linejoin:round;" version="1.1" viewBox="0 0 1024 1024" width="100%" xml:space="preserve" xmlns="http://www.w3.org/2000/svg" xmlns:xlink="http://www.w3.org/1999/xlink">
<defs/>
<g id="Слой-3"/>
<g id="Слой-1">
<path d="M354.202 323.244L687.362 323.244L687.362 597.1L687.362 977.138L354.202 977.138L354.202 323.244Z" fill="#c3c3c3" fill-rule="nonzero" opacity="1" stroke="#000000" stroke-linecap="butt" stroke-linejoin="miter" stroke-width="9.81747"/>
<path d="M228.252 264.977L793.367 264.977L793.367 314.904L228.252 314.904L228.252 264.977Z" fill="#000000" fill-opacity="0" fill-rule="nonzero" opacity="1" stroke="#000000" stroke-linecap="butt" stroke-linejoin="miter" stroke-width="9.81747"/>
<path d="M228.252 261.59L793.367 261.59L793.367 314.904L228.252 314.904L228.252 261.59Z" fill="#535353" fill-rule="nonzero" opacity="1" stroke="#000000" stroke-linecap="butt" stroke-linejoin="miter" stroke-width="9.81747"/>
<path d="M330.277 85.5297L711.603 85.5297L711.603 261.359L330.277 261.359L330.277 85.5297Z" fill="#000000" fill-opacity="0" fill-rule="nonzero" opacity="1" stroke="#000000" stroke-linecap="butt" stroke-linejoin="miter" stroke-width="9.81747"/>
<path d="M330.277 86.2072L711.603 86.2072L711.603 262.037L330.277 262.037L330.277 86.2072Z" fill="#535353" fill-rule="nonzero" opacity="1" stroke="#000000" stroke-linecap="butt" stroke-linejoin="miter" stroke-width="9.81747"/>
<path d="M478.611 545.726C478.611 521.748 498.858 502.311 523.834 502.311C548.811 502.311 569.058 521.748 569.058 545.726C569.058 569.703 548.811 589.14 523.834 589.14C498.858 589.14 478.611 569.703 478.611 545.726Z" fill="#535353" fill-rule="nonzero" opacity="1" stroke="#000000" stroke-linecap="butt" stroke-linejoin="miter" stroke-width="9.81747"/>
<path d="M391.597 777.686L586.963 777.686L644.126 777.686L644.126 794.328L561.638 794.328L391.597 794.328L391.597 777.686Z" fill="#ffffff" fill-rule="nonzero" opacity="1" stroke="#000000" stroke-linecap="butt" stroke-linejoin="miter" stroke-width="9.81747"/>
<path d="M391.597 829.175L586.963 829.175L644.126 829.175L644.126 845.817L561.638 845.817L391.597 845.817L391.597 829.175Z" fill="#ffffff" fill-rule="nonzero" opacity="1" stroke="#000000" stroke-linecap="butt" stroke-linejoin="miter" stroke-width="9.81747"/>
<path d="M392.952 884.051L588.318 884.051L645.481 884.051L645.481 900.693L562.993 900.693L392.952 900.693L392.952 884.051Z" fill="#ffffff" fill-rule="nonzero" opacity="1" stroke="#000000" stroke-linecap="butt" stroke-linejoin="miter" stroke-width="9.81747"/>
<path d="M388.223 379.381L654.476 379.381L654.476 463.389L388.223 463.389L388.223 379.381Z" fill="#535353" fill-rule="nonzero" opacity="1" stroke="#000000" stroke-linecap="butt" stroke-linejoin="miter" stroke-width="9.81747"/>
<path d="M330.637 200.524L706.642 200.524L706.642 260.143L330.637 260.143L330.637 200.524Z" fill="#000000" fill-rule="nonzero" opacity="1" stroke="#000000" stroke-linecap="butt" stroke-linejoin="miter" stroke-width="9.81747"/>
<path d="M412.613 411.9L630.763 411.9L630.763 431.547L412.613 431.547L412.613 411.9Z" fill="#ffffff" fill-rule="nonzero" opacity="1" stroke="#000000" stroke-linecap="butt" stroke-linejoin="miter" stroke-width="9.81747"/>
<path d="M516.268 526.395L531.173 526.395L531.173 565.012L516.268 565.012L516.268 526.395Z" fill="#ffffff" fill-rule="nonzero" opacity="1" stroke="#000000" stroke-linecap="butt" stroke-linejoin="miter" stroke-width="9.81747"/>
<path d="M596.391 545.629C596.579 536.973 603.903 530.112 612.748 530.304C621.593 530.497 628.611 537.671 628.422 546.327C628.234 554.983 620.91 561.844 612.065 561.651C603.22 561.458 596.202 554.285 596.391 545.629Z" fill="#535353" fill-rule="nonzero" opacity="1" stroke="#000000" stroke-linecap="butt" stroke-linejoin="miter" stroke-width="8.60174"/>
<path d="M394.998 502.683L439.712 502.683" fill="none" opacity="1" stroke="#000000" stroke-linecap="butt" stroke-linejoin="miter" stroke-width="8.60174"/>
<path d="M394.998 525.718L439.712 525.718" fill="none" opacity="1" stroke="#000000" stroke-linecap="butt" stroke-linejoin="miter" stroke-width="8.60174"/>
<path d="M394.998 547.398L439.712 547.398" fill="none" opacity="1" stroke="#000000" stroke-linecap="butt" stroke-linejoin="miter" stroke-width="8.60174"/>
</g>
</svg>
